# xmcd
#
# Track frame offsets:
#	150
#	7157
#	35740
#	55395
#	73077
#	88551
#	98391
#	104169
#	119369
#	134122
#	156700
#	180683
#	204282
#	221978
#	240893
#	250108
#	256509
#	278490
#	300827
#
# Disc length: 4221 seconds
#
# Revision: 0
# Processed by: cddbd v1.5.1PL2 Copyright (c) Steve Scherf et al.
# Submitted via: EasyCDDAExtractor 8.1.2.3
#
DISCID=0e107b13
DTITLE=Bakar - Pour les quartiers
DYEAR=2005
DGENRE=Rap
TTITLE0=Intro
TTITLE1=Classic
TTITLE2=Mon_Cv
TTITLE3=Ma musique venez la..
TTITLE4=Visions
TTITLE5=Sous pression part 2
TTITLE6=Freestyle part 1
TTITLE7=Le roloto des blocks
TTITLE8=Legendaire
TTITLE9=Niquer le systeme
TTITLE10=On revient choquer_..
TTITLE11=Sans artifice
TTITLE12=B.A.K
TTITLE13=Souffle de die
TTITLE14=Freestyle part 2
TTITLE15=On fout le bordel
TTITLE16=Poing levé
TTITLE17=Le block
TTITLE18=Memoire d'imigrés
EXTD=
EXTT0=
EXTT1=
EXTT2=
EXTT3=
EXTT4=
EXTT5=
EXTT6=
EXTT7=
EXTT8=
EXTT9=
EXTT10=
EXTT11=
EXTT12=
EXTT13=
EXTT14=
EXTT15=
EXTT16=
EXTT17=
EXTT18=
PLAYORDER=
